<?xml version="1.0" encoding="UTF-8"?><svg id="Layer_1" xmlns="http://www.w3.org/2000/svg" viewBox="0 0 795 768"><defs><style>.cls-1{stroke-width:0px;}</style></defs><path class="cls-1" d="m308.36,652.7c.25-14.44.5-33.32.76-56.64m78.3,60.44s43.01,24.01,77.92,23.95c14.78-.03,28.68-3.57,28.68-3.57,6.42-1.65,12.7-3.88,18.83-6.69,14.94-6.84,27.24-17.73,36.87-32.69,9.62-14.94,14.45-34.33,14.45-58.16,0-20.78-4.94-38.89-14.82-54.36-9.88-15.45-23.7-29.9-41.43-43.33-17.75-13.42-38.52-27.24-62.34-41.43-23.83-14.69-46.12-29.65-66.9-44.85-20.79-15.2-37.38-32.81-49.79-52.83-12.43-20.02-18.63-44.21-18.63-72.6,0-29.9,6.71-54.6,20.15-74.12,13.42-19.5,31.04-33.95,52.84-43.33,21.78-9.37,45.1-14.06,69.94-14.06s44.59,2.92,57.78,8.74c13.17,5.83,24.83,12.29,34.97,19.39,6.08,3.55,11.02,6.21,14.82,7.98,3.8,1.78,7.47,2.66,11.02,2.66,5.06,0,8.74-2.78,11.02-8.36,2.28-5.57,4.18-13.93,5.7-25.09h17.48c-.51,8.62-1.14,18.89-1.9,30.79-.76,11.91-1.27,27.63-1.52,47.13-.26,19.52-.38,45.23-.38,77.16h-17.48c-1.52-24.33-6.84-47.63-15.97-69.94-9.12-22.3-22.43-40.54-39.91-54.74-17.48-14.18-40.42-21.29-68.8-21.29-26.87,0-49.03,8.11-66.52,24.33-17.48,16.23-26.23,37.51-26.23,63.86,0,22.81,5.82,41.94,17.48,57.4,11.65,15.47,27.24,29.4,46.75,41.81,19.5,12.42,40.67,25.73,63.48,39.91,26.35,16.23,49.8,32.31,70.32,48.27,20.53,15.96,36.74,33.58,48.65,52.84,11.9,19.27,17.86,42.57,17.86,69.94,0,32.44-7.35,59.3-22.05,80.58-14.71,21.29-34.21,37.25-58.54,47.89-24.33,10.64-51.2,15.96-80.58,15.96-26.87,0-48.16-3.04-63.86-9.12-15.72-6.08-29.15-12.41-40.29-19.01-13.7-8.11-18.61-11.72-24.29-15.74-10.35-7.32-36.92-32.58-36.92-32.58l19.55-8.69s17.45,20.8,62.58,45.99Z"/><path class="cls-1" d="m189.84,738v-14.68c23.17-.52,42.6-6.18,58.31-16.99,15.7-10.81,27.54-28.71,35.53-53.68,7.98-24.98,11.97-58.31,11.97-100.02V127.87c0-19.04-1.54-33.08-4.63-42.09-3.09-9-9.15-15.18-18.15-18.54-9.01-3.34-22.28-5.27-39.77-5.79v-15.45c10.81.52,24.97,1.04,42.48,1.55,17.5.52,35.78.77,54.83.77s37.46-.25,55.22-.77c17.76-.51,32.56-1.03,44.41-1.55v15.45c-17.51.52-30.77,2.45-39.78,5.79-9.01,3.36-15.06,9.53-18.15,18.54-3.09,9.01-4.63,23.05-4.63,42.09v282.67c0,21.12-.27,44.02-.77,68.74-.52,24.71-1.68,48.66-3.48,71.83-1.81,23.17-4.77,43.5-8.88,61.01-8.76,36.03-27.17,66.03-55.22,89.97-28.07,23.94-64.49,35.91-109.28,35.91Z"/></svg>