<?xml version="1.0" encoding="UTF-8"?><svg id="Layer_1" xmlns="http://www.w3.org/2000/svg" viewBox="0 0 795 768"><defs><style>.cls-1{fill:none;stroke:#8E8FC9;stroke-miterlimit:10;stroke-width:10px;}</style></defs><path class="cls-1" d="M803.22,497s-76.83,50.93-144.41,16.3c-112.94-57.88-55.7-113.3-79.23-168.01-32.39-75.32-102.66-2.49-168.01-96.65-77.8-112.11-23.87-142.72,12.92-148.34,41.09-6.29,80.36-15.18,100.27-47.85,18.53-30.4,13.83-62.05,12.1-71.36"/><path class="cls-1" d="M802.66,266.63s-43.24,81.4-119.16,83.2c-126.87,3-102.99-73.02-149.77-109.89-64.4-50.75-91.42,46.78-193.77-4.82-121.85-61.43-89.05-114.05-59.39-136.55,33.12-25.12,63.39-51.66,65.31-89.88,1.79-35.56-17.43-61.14-23.4-68.49"/></svg>